<?xml version="1.0" encoding="UTF-8" standalone="no"?>
<svg
   xmlns:dc="http://purl.org/dc/elements/1.1/"
   xmlns:cc="http://creativecommons.org/ns#"
   xmlns:rdf="http://www.w3.org/1999/02/22-rdf-syntax-ns#"
   xmlns:svg="http://www.w3.org/2000/svg"
   xmlns="http://www.w3.org/2000/svg"
   xmlns:sodipodi="http://sodipodi.sourceforge.net/DTD/sodipodi-0.dtd"
   xmlns:inkscape="http://www.inkscape.org/namespaces/inkscape"
   width="500.00003"
   height="106.08701"
   viewBox="0 0 132.29167 28.068851"
   version="1.1"
   id="svg12334"
   inkscape:version="1.0.1 (3bc2e813f5, 2020-09-07)"
   sodipodi:docname="Aime logo 2018.svg">
  <defs
     id="defs12328" />
  <sodipodi:namedview
     id="base"
     pagecolor="#ffffff"
     bordercolor="#666666"
     borderopacity="1.0"
     inkscape:pageopacity="0.0"
     inkscape:pageshadow="2"
     inkscape:zoom="2.8"
     inkscape:cx="327.91442"
     inkscape:cy="137.90322"
     inkscape:document-units="px"
     inkscape:current-layer="layer1"
     inkscape:document-rotation="0"
     showgrid="false"
     fit-margin-top="0"
     fit-margin-left="0"
     fit-margin-right="0"
     fit-margin-bottom="0"
     units="px"
     inkscape:window-width="3840"
     inkscape:window-height="2068"
     inkscape:window-x="-12"
     inkscape:window-y="-12"
     inkscape:window-maximized="1" />
  <metadata
     id="metadata12331">
    <rdf:RDF>
      <cc:Work
         rdf:about="">
        <dc:format>image/svg+xml</dc:format>
        <dc:type
           rdf:resource="http://purl.org/dc/dcmitype/StillImage" />
        <dc:title></dc:title>
      </cc:Work>
    </rdf:RDF>
  </metadata>
  <g
     inkscape:label="Layer 1"
     inkscape:groupmode="layer"
     id="layer1"
     transform="translate(-158.10112,-275.14337)">
    <g
       id="g7570"
       transform="matrix(6.3536061,0,0,-6.3536061,172.13624,286.73097)"
       style="fill:#d1005c;fill-opacity:1">
      <path
         d="m 0,0 c -0.213,0 -0.386,-0.172 -0.386,-0.385 0,-0.213 0.173,-0.385 0.386,-0.385 0.212,0 0.385,0.172 0.385,0.385 C 0.385,-0.172 0.212,0 0,0"
         style="fill:#d1005c;fill-opacity:1;fill-rule:nonzero;stroke:none"
         id="path7572" />
    </g>
    <g
       id="g7574"
       transform="matrix(6.3536061,0,0,-6.3536061,172.13624,275.14337)"
       style="fill:#d1005c;fill-opacity:1">
      <path
         d="m 0,0 c -1.219,0 -2.209,-0.991 -2.209,-2.209 v -1.969 c 0,-0.132 0.107,-0.239 0.239,-0.239 0.133,0 0.241,0.107 0.241,0.239 v 1.969 c 0,0.954 0.775,1.73 1.729,1.73 0.953,0 1.729,-0.776 1.729,-1.73 v -1.969 c 0,-0.132 0.107,-0.239 0.24,-0.239 0.132,0 0.239,0.107 0.239,0.239 v 1.969 C 2.208,-0.991 1.218,0 0,0"
         style="fill:#d1005c;fill-opacity:1;fill-rule:nonzero;stroke:none"
         id="path7576" />
    </g>
    <g
       id="g7578"
       transform="matrix(6.3536061,0,0,-6.3536061,197.1537,275.14337)"
       style="fill:#d1005c;fill-opacity:1">
      <path
         d="m 0,0 c -0.213,0 -0.385,-0.172 -0.385,-0.385 0,-0.213 0.172,-0.385 0.385,-0.385 0.213,0 0.385,0.172 0.385,0.385 C 0.385,-0.172 0.213,0 0,0"
         style="fill:#d1005c;fill-opacity:1;fill-rule:nonzero;stroke:none"
         id="path7580" />
    </g>
    <g
       id="g7582"
       transform="matrix(6.3536061,0,0,-6.3536061,197.1537,286.73097)"
       style="fill:#d1005c;fill-opacity:1">
      <path
         d="m 0,0 c -0.133,0 -0.24,-0.107 -0.24,-0.24 v -2.114 c 0,-0.132 0.107,-0.24 0.24,-0.24 0.133,0 0.24,0.108 0.24,0.24 V -0.24 C 0.24,-0.107 0.133,0 0,0"
         style="fill:#d1005c;fill-opacity:1;fill-rule:nonzero;stroke:none"
         id="path7584" />
    </g>
    <g
       id="g7586"
       transform="matrix(6.3536061,0,0,-6.3536061,273.4713,286.73097)"
       style="fill:#d1005c;fill-opacity:1">
      <path
         d="M 0,0 C 0,0.213 -0.172,0.385 -0.385,0.385 -0.598,0.385 -0.77,0.213 -0.77,0 c 0,-0.212 0.172,-0.385 0.385,-0.385 C -0.172,-0.385 0,-0.212 0,0"
         style="fill:#d1005c;fill-opacity:1;fill-rule:nonzero;stroke:none"
         id="path7588" />
    </g>
    <g
       id="g7590"
       transform="matrix(6.3536061,0,0,-6.3536061,272.96863,299.23943)"
       style="fill:#d1005c;fill-opacity:1">
      <path
         d="m 0,0 c -0.423,-0.185 -0.893,-0.194 -1.322,-0.025 -0.43,0.168 -0.769,0.494 -0.953,0.917 -0.185,0.423 -0.194,0.893 -0.026,1.322 0.169,0.43 0.495,0.769 0.918,0.953 0.222,0.097 0.456,0.146 0.691,0.146 0.213,0 0.427,-0.04 0.631,-0.121 C 0.274,3.062 0.553,2.834 0.747,2.541 0.91,2.29 0.943,1.976 0.834,1.697 0.693,1.339 0.354,1.108 -0.029,1.108 -0.162,1.108 -0.27,1 -0.27,0.868 c 0,-0.133 0.108,-0.24 0.241,-0.24 0.371,0 0.714,0.143 0.968,0.386 C 0.933,0.993 0.926,0.973 0.917,0.953 0.749,0.523 0.423,0.185 0,0 m -0.691,3.792 c -1.22,0 -2.209,-0.988 -2.209,-2.209 0,-1.219 0.989,-2.208 2.209,-2.208 1.219,0 2.209,0.989 2.209,2.208 0,1.221 -0.99,2.209 -2.209,2.209"
         style="fill:#d1005c;fill-opacity:1;fill-rule:nonzero;stroke:none"
         id="path7592" />
    </g>
    <g
       id="g7594"
       transform="matrix(6.3536061,0,0,-6.3536061,237.81286,275.14337)"
       style="fill:#d1005c;fill-opacity:1">
      <path
         d="M 0,0 C -0.628,0 -1.178,-0.339 -1.477,-0.843 -1.776,-0.339 -2.326,0 -2.953,0 -3.9,0 -4.67,-0.77 -4.67,-1.717 v -2.461 c 0,-0.132 0.108,-0.239 0.239,-0.239 0.133,0 0.241,0.107 0.241,0.239 v 2.461 c 0,0.682 0.554,1.238 1.237,1.238 0.682,0 1.236,-0.556 1.236,-1.238 v -2.461 c 0,-0.132 0.108,-0.239 0.24,-0.239 0.132,0 0.24,0.107 0.24,0.239 v 2.461 c 0,0.682 0.555,1.238 1.237,1.238 0.682,0 1.236,-0.556 1.236,-1.238 v -2.461 c 0,-0.132 0.108,-0.239 0.241,-0.239 0.132,0 0.24,0.107 0.24,0.239 v 2.461 C 1.717,-0.77 0.946,0 0,0"
         style="fill:#d1005c;fill-opacity:1;fill-rule:nonzero;stroke:none"
         id="path7596" />
    </g>
    <g
       id="g7598"
       transform="matrix(6.3536061,0,0,-6.3536061,285.6264,275.20569)"
       style="fill:#d1005c;fill-opacity:1">
      <path
         d="m 0,0 h -0.438 c -0.013,0 -0.022,-0.004 -0.028,-0.013 -0.006,-0.008 -0.009,-0.018 -0.009,-0.029 0,-0.01 0.003,-0.02 0.009,-0.028 0.006,-0.009 0.015,-0.013 0.028,-0.013 h 0.175 v -0.525 c 0,-0.013 0.005,-0.021 0.014,-0.027 0.009,-0.007 0.02,-0.01 0.031,-0.01 0.011,0 0.021,0.003 0.031,0.01 0.008,0.006 0.013,0.014 0.013,0.027 v 0.525 H 0 c 0.013,0 0.022,0.004 0.028,0.013 0.006,0.008 0.009,0.018 0.009,0.028 0,0.011 -0.003,0.021 -0.009,0.029 C 0.022,-0.004 0.013,0 0,0"
         style="fill:#d1005c;fill-opacity:1;fill-rule:nonzero;stroke:none"
         id="path7600" />
    </g>
    <g
       id="g7602"
       transform="matrix(6.3536061,0,0,-6.3536061,290.34832,275.37966)"
       style="fill:#d1005c;fill-opacity:1">
      <path
         d="M 0,0 C -0.005,0.008 -0.01,0.016 -0.018,0.021 -0.024,0.026 -0.032,0.03 -0.041,0.033 -0.05,0.036 -0.059,0.037 -0.067,0.037 -0.081,0.037 -0.093,0.034 -0.104,0.029 -0.115,0.023 -0.123,0.015 -0.127,0.004 l -0.185,-0.486 -0.185,0.486 c -0.005,0.011 -0.012,0.019 -0.024,0.025 -0.01,0.005 -0.023,0.008 -0.036,0.008 -0.008,0 -0.018,-0.001 -0.027,-0.004 C -0.592,0.03 -0.601,0.026 -0.607,0.021 -0.614,0.016 -0.62,0.008 -0.624,0 -0.629,-0.008 -0.631,-0.018 -0.631,-0.029 v -0.552 c 0,-0.012 0.005,-0.021 0.013,-0.027 0.009,-0.006 0.018,-0.009 0.029,-0.009 0.012,0 0.022,0.003 0.029,0.009 0.009,0.006 0.014,0.015 0.014,0.027 v 0.495 l 0.171,-0.454 c 0.008,-0.02 0.017,-0.034 0.027,-0.042 0.011,-0.008 0.023,-0.012 0.036,-0.012 0.012,0 0.025,0.004 0.036,0.012 0.009,0.008 0.019,0.022 0.027,0.042 l 0.171,0.454 v -0.495 c 0,-0.012 0.004,-0.021 0.013,-0.027 0.008,-0.006 0.018,-0.009 0.029,-0.009 0.011,0 0.02,0.003 0.029,0.009 0.009,0.006 0.014,0.015 0.014,0.027 v 0.552 C 0.007,-0.018 0.004,-0.008 0,0"
         style="fill:#d1005c;fill-opacity:1;fill-rule:nonzero;stroke:none"
         id="path7604" />
    </g>
  </g>
</svg>
