<svg width="118" height="116" xmlns="http://www.w3.org/2000/svg" xmlns:xlink="http://www.w3.org/1999/xlink" overflow="hidden"><g transform="translate(-387 -302)"><path d="M491.09 318.966C489.544 318.966 488.071 319.279 486.731 319.845L485.957 320.366 485.957 320.366 483.171 322.243C481.144 324.268 479.89 327.065 479.89 330.155 479.89 336.335 484.905 341.344 491.091 341.344 497.276 341.344 502.291 336.335 502.291 330.155 502.291 328.61 501.978 327.138 501.411 325.8L501.411 325.799 501.411 325.799C499.711 321.783 495.73 318.966 491.09 318.966ZM445.057 303C456.874 303 467.852 306.589 476.958 312.735L484.751 319.158 486.066 318.272C487.61 317.619 489.308 317.258 491.091 317.258 498.22 317.258 504 323.032 504 330.155 504 333.716 502.555 336.94 500.219 339.274L498.454 340.463 500.955 348.513C501.715 352.223 502.114 356.065 502.114 360 502.114 391.48 476.569 417 445.057 417 437.179 417 429.674 415.405 422.848 412.521L414.175 407.818 417.686 406.992C430.605 402.564 447.165 390.426 462.12 373.318 468.102 366.476 473.261 359.486 477.468 352.704L481.88 344.822 481.484 345.334C479.755 347.476 477.96 349.614 476.101 351.741 446.357 385.765 411.505 403.978 398.259 392.421L397.703 391.793 392.484 382.187C389.597 375.368 388 367.87 388 360 388 328.52 413.545 303 445.057 303Z" fill="#FFFFFF" fill-rule="evenodd"/></g></svg>