<svg xmlns="http://www.w3.org/2000/svg" viewBox="0 0 135 40" width="135" height="40">
  <rect x="0.5" y="0.5" width="134" height="39" rx="6.5" fill="#000000" stroke="#A6A6A6" stroke-width="1"/>
  <g fill="#3DDC84" transform="translate(10, 8) scale(0.9)">
    <rect x="4.5" y="0" width="1.2" height="4" rx="0.6" transform="rotate(-30 4.5 0)"/>
    <rect x="18.3" y="0" width="1.2" height="4" rx="0.6" transform="rotate(30 18.3 0)"/>
    <path d="M12,2.5A9.5,9.5,0,0,0,2.5,12h19A9.5,9.5,0,0,0,12,2.5Z"/>
    <circle cx="7.5" cy="7.5" r="0.9" fill="#000000"/>
    <circle cx="16.5" cy="7.5" r="0.9" fill="#000000"/>
    <path d="M2.5,13.5V23a1.5,1.5,0,0,0,1.5,1.5H20A1.5,1.5,0,0,0,21.5,23V13.5H2.5Z"/>
  </g>
  <text x="36" y="16" fill="#FFFFFF" font-family="-apple-system, BlinkMacSystemFont, 'Segoe UI', Roboto, Helvetica, Arial, sans-serif" font-size="6" font-weight="500" letter-spacing="0.2">DOWNLOAD APK FOR</text>
  <text x="36" y="29" fill="#FFFFFF" font-family="-apple-system, BlinkMacSystemFont, 'Segoe UI', Roboto, Helvetica, Arial, sans-serif" font-size="11.5" font-weight="bold">Android</text>
</svg>
